<svg width="360" height="382" viewBox="0 0 360 382" fill="none" xmlns="http://www.w3.org/2000/svg">
<path d="M419 335.696H-59V335.953H419V335.696Z" fill="#EBEBEB"/>
<path d="M371.104 352.193H339.442V352.45H371.104V352.193Z" fill="#EBEBEB"/>
<path d="M257.646 354.982H249.339V355.239H257.646V354.982Z" fill="#EBEBEB"/>
<path d="M338.486 342.678H320.14V342.935H338.486V342.678Z" fill="#EBEBEB"/>
<path d="M32.4414 344.401H-8.84827V344.658H32.4414V344.401Z" fill="#EBEBEB"/>
<path d="M47.0108 344.401H40.9594V344.658H47.0108V344.401Z" fill="#EBEBEB"/>
<path d="M156.243 348.728H66.6853V348.985H156.243V348.728Z" fill="#EBEBEB"/>
<path d="M167.572 289.966H-17.0221C-18.4682 289.963 -19.8542 289.345 -20.8759 288.247C-21.8975 287.15 -22.4713 285.662 -22.4713 284.111V5.80341C-22.4587 4.26133 -21.8794 2.78685 -20.8591 1.70023C-19.8388 0.613622 -18.46 0.00264167 -17.0221 0H167.572C169.02 0 170.408 0.616831 171.432 1.7148C172.456 2.81276 173.031 4.30192 173.031 5.85468V284.111C173.031 285.664 172.456 287.153 171.432 288.251C170.408 289.349 169.02 289.966 167.572 289.966ZM-17.0221 0.205068C-18.4048 0.207785 -19.73 0.798805 -20.7069 1.8484C-21.6837 2.898 -22.2323 4.32042 -22.2323 5.80341V284.111C-22.2323 285.594 -21.6837 287.016 -20.7069 288.066C-19.73 289.116 -18.4048 289.707 -17.0221 289.709H167.572C168.956 289.707 170.282 289.116 171.26 288.067C172.238 287.017 172.789 285.595 172.792 284.111V5.80341C172.789 4.31947 172.238 2.89709 171.26 1.84778C170.282 0.798472 168.956 0.207779 167.572 0.205068H-17.0221Z" fill="#EBEBEB"/>
<path d="M374.364 289.966H189.761C188.314 289.963 186.927 289.345 185.904 288.248C184.88 287.15 184.305 285.663 184.302 284.111V5.80341C184.317 4.2604 184.899 2.78592 185.92 1.69959C186.942 0.613264 188.322 0.00261286 189.761 0H374.364C375.801 0.00533637 377.177 0.617509 378.195 1.70383C379.213 2.79016 379.791 4.2631 379.804 5.80341V284.111C379.804 285.66 379.232 287.146 378.212 288.244C377.192 289.341 375.809 289.96 374.364 289.966ZM189.761 0.205068C188.377 0.207779 187.051 0.798472 186.073 1.84778C185.094 2.89709 184.544 4.31947 184.541 5.80341V284.111C184.544 285.595 185.094 287.017 186.073 288.067C187.051 289.116 188.377 289.707 189.761 289.709H374.364C375.748 289.707 377.074 289.116 378.052 288.067C379.031 287.017 379.582 285.595 379.584 284.111V5.80341C379.582 4.31947 379.031 2.89709 378.052 1.84778C377.074 0.798472 375.748 0.207779 374.364 0.205068H189.761Z" fill="#EBEBEB"/>
<path d="M351.401 331.051L350.952 260.303L341.153 251.423L336.621 228.035L330.752 220.694L327.597 204.288L322.243 211.743L319.213 256.529L316.182 251.403L313.773 233.972L308.936 239.55L302.884 241.17L299.357 278.164L209.493 289.668L190.803 272.566L183.155 239.078L175.268 230.352L172.868 214.214L165.325 217.013V234.044L158.968 238.001L156.224 272.566L148.175 284.511L145.89 263.153C145.89 263.153 139.724 257.862 138.357 256.591C136.989 255.319 129.217 232.085 130.393 230.352C131.569 228.62 128.711 213.547 128.711 213.547L120.938 218.53V243.497L112.831 245.702L111.608 256.591L90.9198 260.169L87.5929 243.497H78.3676L75.4996 253.002L67.1059 252.941L53.827 263.194L42.9095 240.206L31.8008 245.743L23.7991 225.831L15.3958 237.499L12.2793 275.365L7.91991 275.816L5.92187 267.613L-2.16589 275.816V331.01L351.401 331.051Z" fill="#F5F5F5"/>
<path d="M202.036 142.153H152.448C150.395 142.052 148.458 141.098 147.049 139.493C145.639 137.889 144.867 135.759 144.895 133.554C144.924 131.349 145.751 129.243 147.202 127.681C148.652 126.119 150.613 125.223 152.668 125.184C153.439 125.182 154.206 125.303 154.943 125.542C154.825 124.68 154.764 123.81 154.762 122.938C154.762 118.168 156.528 113.594 159.673 110.221C162.818 106.848 167.083 104.954 171.53 104.954C172.566 104.952 173.6 105.055 174.618 105.261C176.267 102.343 178.757 100.08 181.712 98.8149C184.667 97.5497 187.926 97.3509 190.996 98.2487C194.065 99.1465 196.779 101.092 198.726 103.791C200.673 106.49 201.748 109.795 201.787 113.208H202.036C205.555 113.308 208.899 114.878 211.355 117.583C213.811 120.288 215.185 123.915 215.185 127.69C215.185 131.466 213.811 135.093 211.355 137.798C208.899 140.503 205.555 142.073 202.036 142.173V142.153Z" fill="#F5F5F5"/>
<path d="M231.72 57.4189H213.068C212.28 57.4081 211.527 57.0617 210.977 56.456C210.427 55.8503 210.123 55.0349 210.133 54.1891C210.143 53.3434 210.466 52.5366 211.031 51.9463C211.596 51.356 212.356 51.0305 213.145 51.0413C213.436 51.0373 213.726 51.0823 214.005 51.1746C213.956 50.8355 213.934 50.4925 213.938 50.1493C213.938 49.2611 214.101 48.3816 214.419 47.5611C214.736 46.7407 215.201 45.9953 215.787 45.3678C216.373 44.7402 217.068 44.2427 217.834 43.9037C218.599 43.5648 219.42 43.391 220.248 43.3923C220.636 43.3933 221.023 43.4311 221.404 43.5051C222.026 42.4024 222.966 41.5477 224.082 41.0715C225.198 40.5953 226.429 40.5236 227.587 40.8675C228.745 41.2113 229.766 41.9517 230.495 42.9759C231.224 44 231.62 45.2517 231.624 46.5401H231.72C233.029 46.601 234.266 47.2018 235.173 48.2172C236.079 49.2325 236.585 50.584 236.585 51.9898C236.585 53.3956 236.079 54.747 235.173 55.7624C234.266 56.7777 233.029 57.3785 231.72 57.4395V57.4189Z" fill="#F5F5F5"/>
<path d="M61.7811 63.6428H43.1296C42.7391 63.6367 42.3536 63.5482 41.995 63.3824C41.6365 63.2165 41.3119 62.9765 41.0398 62.6761C40.4903 62.0695 40.188 61.2535 40.1994 60.4078C40.2108 59.5621 40.535 58.7559 41.1006 58.1665C41.6663 57.5771 42.4271 57.2529 43.2156 57.2652C43.5039 57.2619 43.791 57.3068 44.0664 57.3984C44.0228 57.0587 44.0004 56.7161 43.9995 56.3731C44.002 54.5792 44.6676 52.8595 45.8503 51.5909C47.0331 50.3224 48.6365 49.6086 50.3091 49.6059C50.6976 49.6052 51.0851 49.6464 51.4659 49.7289C52.0849 48.6297 53.0211 47.7769 54.1326 47.2996C55.2441 46.8223 56.4704 46.7465 57.6257 47.0838C58.7809 47.4211 59.8022 48.1531 60.5348 49.1688C61.2674 50.1845 61.6714 51.4286 61.6855 52.7127H61.7811C63.0906 52.7736 64.3276 53.3744 65.2341 54.3897C66.1406 55.4051 66.6466 56.7566 66.6466 58.1623C66.6466 59.5681 66.1406 60.9196 65.2341 61.9349C64.3276 62.9503 63.0906 63.5511 61.7811 63.612V63.6428Z" fill="#F5F5F5"/>
<path d="M61.7811 123.123H43.1296C42.7391 123.117 42.3536 123.028 41.995 122.862C41.6365 122.696 41.3119 122.456 41.0398 122.156C40.4903 121.549 40.188 120.733 40.1994 119.888C40.2108 119.042 40.535 118.236 41.1006 117.646C41.6663 117.057 42.4271 116.733 43.2156 116.745C43.5036 116.747 43.79 116.792 44.0664 116.878C44.0228 116.539 44.0004 116.196 43.9995 115.853C44.002 114.06 44.6679 112.341 45.8509 111.074C47.0339 109.808 48.6374 109.096 50.3091 109.096C50.697 109.097 51.0841 109.135 51.4659 109.209C52.0853 108.109 53.0224 107.256 54.1348 106.779C55.2473 106.302 56.4745 106.227 57.6302 106.565C58.7859 106.904 59.8072 107.637 60.539 108.655C61.2709 109.672 61.6734 110.918 61.6855 112.203H61.7811C63.0906 112.264 64.3276 112.864 65.2341 113.88C66.1406 114.895 66.6466 116.247 66.6466 117.652C66.6466 119.058 66.1406 120.41 65.2341 121.425C64.3276 122.44 63.0906 123.041 61.7811 123.102V123.123Z" fill="#F5F5F5"/>
<path d="M336.574 138.421H309.595C308.454 138.403 307.367 137.9 306.572 137.022C305.776 136.144 305.339 134.964 305.355 133.74C305.372 132.516 305.841 131.35 306.659 130.497C307.478 129.644 308.579 129.175 309.72 129.193C310.138 129.189 310.554 129.255 310.953 129.387C310.892 128.915 310.86 128.439 310.857 127.962C310.857 125.368 311.818 122.88 313.528 121.045C315.239 119.211 317.559 118.18 319.977 118.18C320.542 118.181 321.106 118.239 321.66 118.355C322.56 116.772 323.914 115.546 325.52 114.861C327.125 114.175 328.895 114.068 330.563 114.555C332.23 115.042 333.705 116.097 334.765 117.561C335.825 119.025 336.413 120.818 336.44 122.671H336.574C337.561 122.633 338.545 122.809 339.467 123.188C340.39 123.566 341.232 124.141 341.943 124.876C342.653 125.612 343.219 126.493 343.605 127.468C343.991 128.443 344.19 129.492 344.19 130.551C344.19 131.611 343.991 132.659 343.605 133.634C343.219 134.609 342.653 135.491 341.943 136.226C341.232 136.962 340.39 137.536 339.467 137.915C338.545 138.294 337.561 138.469 336.574 138.431V138.421Z" fill="#F5F5F5"/>
<path d="M134.628 73.568H107.65C106.558 73.4748 105.541 72.9396 104.804 72.0711C104.067 71.2026 103.665 70.0659 103.681 68.8916C103.697 67.7173 104.129 66.5934 104.889 65.7481C105.649 64.9028 106.681 64.3994 107.774 64.34C108.192 64.3414 108.607 64.407 109.007 64.5348C108.942 64.0665 108.91 63.5934 108.912 63.1198C108.912 60.5256 109.873 58.0375 111.583 56.2031C113.294 54.3687 115.613 53.3381 118.032 53.3381C118.596 53.3404 119.159 53.3953 119.715 53.5022C120.615 51.9189 121.97 50.6924 123.577 50.0073C125.183 49.3223 126.954 49.2159 128.622 49.7042C130.29 50.1924 131.764 51.249 132.824 52.7145C133.883 54.1799 134.469 55.975 134.494 57.8291H134.628C136.531 57.9027 138.333 58.7651 139.654 60.2348C140.976 61.7045 141.715 63.6668 141.715 65.7088C141.715 67.7508 140.976 69.7131 139.654 71.1828C138.333 72.6525 136.531 73.5149 134.628 73.5885V73.568Z" fill="#F5F5F5"/>
<path d="M220.152 234.064C218.125 218.202 224.377 200.392 233.154 188.621C234.875 186.544 236.394 184.284 237.685 181.875C241.318 174.236 235.668 168.883 230.4 164.598C210.487 148.407 232.857 145.598 243.306 136.37C244.309 135.633 245.042 134.546 245.381 133.294C245.744 131.243 244.1 129.398 242.608 128.003C235.448 121.216 226.462 114.469 224.855 103.559C224.186 99.0169 225.238 94.0235 228.307 90.804C236.031 82.7243 280.332 92.2805 272.082 70.9022C270.877 67.7749 269.109 64.5656 269.749 61.2537C273.736 40.747 320.847 48.8266 333.581 49.5136C322.758 48.9385 311.921 50.3038 301.517 53.5534C296.737 55.0504 291.25 57.9521 290.743 63.2736C290.236 68.5951 294.844 72.3376 298.391 74.942C303.812 78.91 310.656 85.0006 304.92 92.3727C297.645 101.744 283.477 103.036 273.2 105.969C269.606 106.994 265.724 108.553 265.552 113.228C265.438 115.884 266.508 118.427 267.723 120.744C270.294 125.706 273.583 130.269 275.6 135.519C277.617 140.769 277.799 147.772 274.357 152.601C267.761 161.891 255.859 159.338 264.357 174.748C275.074 194.23 274.501 217.054 266.633 237.632C262.675 247.968 255.438 259.903 243.928 260.651C237.551 261.072 231.318 257.411 227.265 252.11C223.381 246.917 220.919 240.67 220.152 234.064Z" fill="#E0E0E0"/>
<path d="M5.05201 311.826L20.8547 308.442L24.411 262.128L35.1851 254.12L38.9422 214.398L48.6265 202.709L53.1293 211.814L60.4809 226.169L62.9378 240.288L67.106 252.9L76.1115 268.003L84.1992 260.262C84.1992 260.262 88.6064 252.592 90.7192 251.587C92.8319 250.582 101.445 249.742 101.445 249.742L113.434 262.046V271.715L125.699 278.728L133.242 286.859L137.754 292.837L146.138 297.512C164.561 283.875 210.191 245.62 220.343 194.814L231.815 206.39L239.989 192.61L246.394 207.118L241.872 222.396L249.75 230.096L246.394 245.527L255.773 230.096L250.744 219.197L254.568 209.589L251.7 195.368L260.562 191.072L271.872 209.589L279.596 194.825C279.596 194.825 289.204 271.879 369.46 335.296H-12.2516L5.05201 311.826Z" fill="#EBEBEB"/>
<path d="M180 382C282.371 382 365.359 376.803 365.359 370.393C365.359 363.983 282.371 358.786 180 358.786C77.6291 358.786 -5.35889 363.983 -5.35889 370.393C-5.35889 376.803 77.6291 382 180 382Z" fill="#F5F5F5"/>
<path d="M255.948 139.233L242.836 139.598C240.889 139.652 239.351 141.39 239.402 143.479L239.743 157.542C239.793 159.63 241.413 161.28 243.361 161.226L256.473 160.86C258.421 160.806 259.958 159.068 259.908 156.979L259.566 142.916C259.516 140.828 257.896 139.178 255.948 139.233Z" fill="#407BFF"/>
<path d="M252.054 159.297C252.054 159.297 249.568 165.859 243.689 168.053C243.689 168.053 246.92 165.931 246.509 159.174L252.054 159.297Z" fill="#407BFF"/>
<g opacity="0.5">
<path d="M248.43 154.826C248.43 154.652 248.463 154.481 248.527 154.321C248.59 154.161 248.683 154.017 248.8 153.897C248.918 153.777 249.056 153.684 249.208 153.624C249.36 153.563 249.521 153.536 249.683 153.544C249.843 153.537 250.002 153.566 250.152 153.627C250.302 153.689 250.438 153.782 250.552 153.902C250.667 154.022 250.757 154.166 250.818 154.325C250.879 154.484 250.909 154.654 250.906 154.826C250.909 154.999 250.879 155.17 250.818 155.33C250.758 155.49 250.668 155.635 250.553 155.757C250.439 155.878 250.303 155.974 250.153 156.038C250.004 156.102 249.844 156.132 249.683 156.128C249.52 156.134 249.358 156.104 249.206 156.041C249.055 155.978 248.916 155.883 248.799 155.762C248.683 155.64 248.59 155.495 248.526 155.334C248.463 155.173 248.43 155.001 248.43 154.826ZM248.536 144.368H250.83L250.438 152.15H248.908L248.536 144.368Z" fill="white"/>
</g>
<path d="M235.993 303.11L232.083 307.622L223.182 298.425L227.083 293.913L235.993 303.11Z" fill="#EEC1BB"/>
<path opacity="0.2" d="M227.083 293.913L223.182 298.425L227.781 303.172L231.681 298.65L227.083 293.913Z" fill="black"/>
<path d="M230.668 306.104L236.404 302.7C236.497 302.639 236.608 302.615 236.716 302.632C236.824 302.648 236.924 302.705 236.997 302.793L240.113 306.72C240.181 306.813 240.23 306.919 240.258 307.033C240.286 307.147 240.293 307.265 240.278 307.382C240.263 307.498 240.226 307.611 240.17 307.712C240.114 307.813 240.039 307.901 239.951 307.971C239.909 308.011 239.86 308.042 239.807 308.063C237.809 309.201 236.729 309.714 234.234 311.19C232.704 312.092 226.242 315.291 223.928 315.291C221.615 315.291 221.481 312.954 222.437 312.646C227.293 311.057 229.282 308.75 229.999 306.884C230.139 306.554 230.373 306.281 230.668 306.104Z" fill="#263238"/>
<path d="M229.416 307.981C229.092 308.206 228.711 308.318 228.326 308.299C228.203 308.276 228.087 308.218 227.991 308.132C227.896 308.045 227.823 307.933 227.781 307.807C227.746 307.735 227.727 307.656 227.727 307.576C227.727 307.495 227.746 307.416 227.781 307.345C228.211 306.73 230.314 306.761 230.553 306.771C230.577 306.77 230.6 306.778 230.619 306.792C230.638 306.807 230.652 306.829 230.658 306.853C230.672 306.878 230.679 306.906 230.679 306.935C230.679 306.964 230.672 306.992 230.658 307.017C230.275 307.382 229.859 307.705 229.416 307.981ZM228.173 307.376C228.117 307.405 228.068 307.447 228.029 307.499C228.011 307.526 228.001 307.558 228.001 307.591C228.001 307.624 228.011 307.657 228.029 307.683C228.055 307.77 228.102 307.848 228.166 307.908C228.231 307.968 228.309 308.007 228.393 308.022C229.1 307.928 229.751 307.564 230.228 306.997C229.527 306.987 228.831 307.116 228.173 307.376Z" fill="#407BFF"/>
<path d="M230.668 307.038H230.601C229.951 307.038 228.412 306.535 228.249 305.91C228.226 305.803 228.237 305.692 228.28 305.593C228.324 305.494 228.397 305.414 228.488 305.366C228.57 305.303 228.663 305.257 228.762 305.233C228.86 305.208 228.962 305.205 229.062 305.223C229.884 305.356 230.687 306.761 230.716 306.843C230.733 306.875 230.738 306.914 230.729 306.951C230.72 306.987 230.698 307.018 230.668 307.038ZM228.641 305.551H228.584C228.44 305.664 228.46 305.746 228.469 305.776C228.565 306.145 229.607 306.607 230.305 306.699C230.047 306.31 229.482 305.541 228.966 305.459C228.855 305.437 228.739 305.459 228.641 305.52V305.551Z" fill="#407BFF"/>
<path d="M300.533 312.964L297.339 318.091L287.187 310.524L290.38 305.397L300.533 312.964Z" fill="#EEC1BB"/>
<path d="M296.517 317.763L299.911 311.744C299.964 311.642 300.048 311.562 300.149 311.519C300.25 311.476 300.362 311.472 300.466 311.508L304.997 313.251C305.2 313.344 305.36 313.519 305.442 313.738C305.525 313.957 305.523 314.202 305.437 314.42C305.414 314.478 305.385 314.533 305.351 314.584C304.146 316.635 303.439 317.66 301.966 320.264C301.058 321.864 296.938 328.088 294.93 329.349C292.923 330.61 291.728 328.621 292.416 327.831C295.896 323.863 296.546 320.808 296.297 318.808C296.258 318.443 296.335 318.074 296.517 317.763Z" fill="#263238"/>
<path opacity="0.2" d="M290.38 305.397L287.187 310.524L292.426 314.42L295.619 309.293L290.38 305.397Z" fill="black"/>
<path d="M296.297 320.049C296.122 320.421 295.841 320.723 295.494 320.91C295.377 320.956 295.251 320.968 295.129 320.944C295.006 320.921 294.892 320.863 294.796 320.777C294.735 320.732 294.685 320.67 294.651 320.599C294.618 320.527 294.602 320.447 294.605 320.367C294.691 319.598 296.517 318.501 296.737 318.388C296.757 318.373 296.78 318.365 296.804 318.365C296.828 318.365 296.851 318.373 296.871 318.388C296.884 318.413 296.891 318.441 296.891 318.47C296.891 318.499 296.884 318.527 296.871 318.552C296.727 319.071 296.535 319.572 296.297 320.049ZM294.93 320.193C294.9 320.249 294.88 320.312 294.873 320.377C294.869 320.408 294.873 320.44 294.885 320.469C294.897 320.498 294.916 320.523 294.94 320.541C295.004 320.603 295.082 320.644 295.167 320.661C295.251 320.677 295.338 320.668 295.418 320.633C295.988 320.193 296.395 319.55 296.565 318.819C295.947 319.166 295.393 319.632 294.93 320.193Z" fill="#407BFF"/>
<path d="M296.909 318.593H296.852C296.297 318.962 294.72 319.331 294.29 318.87C294.221 318.791 294.178 318.689 294.17 318.581C294.161 318.474 294.186 318.366 294.242 318.275C294.29 318.174 294.358 318.084 294.44 318.012C294.522 317.939 294.618 317.886 294.72 317.855C295.485 317.537 296.842 318.316 296.909 318.378C296.931 318.39 296.948 318.41 296.958 318.434C296.969 318.458 296.972 318.485 296.967 318.511C296.965 318.529 296.958 318.546 296.948 318.56C296.938 318.575 296.925 318.586 296.909 318.593ZM294.51 318.388V318.439C294.433 318.614 294.51 318.675 294.51 318.706C294.758 318.972 295.886 318.819 296.536 318.521C296.007 318.204 295.398 318.075 294.796 318.152C294.687 318.195 294.595 318.279 294.538 318.388H294.51Z" fill="#407BFF"/>
<path d="M293.324 306.843L292.712 307.868L292.196 308.729L289.165 313.661C289.165 313.661 261.843 296.138 258.574 293.236C255.304 290.335 237.991 255.842 237.991 255.842C237.704 255.935 226.05 259.944 217.59 263.584C212.686 265.686 208.861 267.685 208.919 268.628C209.081 271.335 230.486 297.092 230.486 297.092L224.836 300.998C224.836 300.998 189.837 275.816 190.87 264.137C191.902 252.459 227.102 238.791 227.102 238.791L227.752 221.36L247.436 224.159L248.469 224.303L250.132 224.539C257.273 242.195 265.82 279.487 266.881 282.563C267.942 285.639 293.324 306.843 293.324 306.843Z" fill="#407BFF"/>
<path d="M292.712 307.837L292.196 308.699C284.931 303.08 264.386 286.879 263.64 282.758C262.895 278.636 249.425 231.214 247.436 224.2C247.274 223.667 247.197 223.38 247.188 223.339L248.144 223.042L248.517 224.344C250.945 232.875 263.813 278.287 264.625 282.563C265.141 285.628 280.944 298.743 292.712 307.837Z" fill="white"/>
<path d="M181.118 186.858L172.773 183.587C172.73 182.779 172.497 181.995 172.094 181.311C171.472 180.46 164.102 177.086 164.13 178.235C164.159 179.383 163.519 182.336 165.239 183.987C166.96 185.637 171.453 188.088 172.314 186.806L179.283 191.123L181.118 186.858Z" fill="#EEC1BB"/>
<path d="M214.32 205.437C214.32 205.437 209.196 204.268 203.9 203.017L196.663 201.294C190.449 199.756 176.405 192.794 175.918 190.846C175.43 188.898 177.103 184.838 179.608 185.063C182.113 185.289 197.055 190.549 197.055 190.549L211.252 190.754L212.705 197.757L214.32 205.437Z" fill="#407BFF"/>
<path d="M201.787 192.374C200.233 192.461 198.676 192.461 197.122 192.374C196.74 192.302 195.525 191.882 193.231 191.082C188.346 189.37 179.254 186.201 176.635 186.263V185.238C179.417 185.176 188.269 188.262 193.547 190.108C195.392 190.744 196.979 191.297 197.313 191.369C198.269 191.554 206.672 191.267 212.102 191.031V192.056C211.233 192.056 205.869 192.282 201.787 192.374Z" fill="white"/>
<path d="M175.536 183.987L178.47 185.258L175.88 190.436L174.082 189.144L175.536 183.987Z" fill="#407BFF"/>
<path opacity="0.2" d="M175.536 183.987L178.47 185.258L175.88 190.436L174.082 189.144L175.536 183.987Z" fill="black"/>
<path opacity="0.2" d="M214.32 205.437C214.32 205.437 209.196 204.268 203.9 203.017C204.971 199.603 210.152 198.239 212.705 197.757L214.32 205.437Z" fill="black"/>
<path d="M251.91 220.325C251.96 220.895 251.828 221.467 251.534 221.946C251.24 222.425 250.803 222.783 250.295 222.96C250.094 223.032 249.885 223.074 249.673 223.083H249.339L227.743 224.17C227.22 224.198 226.703 224.038 226.275 223.715C225.847 223.391 225.532 222.923 225.381 222.386C225.087 221.336 224.73 220.309 224.311 219.31C222.375 214.83 219.666 210.784 216.328 207.385C215.372 206.36 214.282 205.334 213.097 204.309C212.097 203.472 211.276 202.416 210.686 201.212C210.096 200.008 209.751 198.684 209.674 197.326C209.574 195.515 209.903 193.705 210.63 192.066C210.8 191.697 210.988 191.337 211.194 190.99L211.319 190.785C211.319 190.785 229.483 187.596 239.664 191.472C246.521 199.435 250.814 209.549 251.91 220.325Z" fill="#407BFF"/>
<path d="M250.295 222.96C250.306 223.45 250.255 223.94 250.142 224.416L249.186 224.108C249.281 223.777 249.32 223.429 249.3 223.083C249.348 216.726 240.543 194.425 238.918 193.348C233.087 190.272 215.152 191.584 210.563 191.984C210.733 191.615 210.921 191.255 211.127 190.908C216.634 190.446 233.459 189.329 239.358 192.425C241.184 193.43 250.237 215.526 250.295 222.96Z" fill="white"/>
<path d="M226.815 223.575L251.222 222.334L252.168 226.231L226.987 227.512L226.815 223.575Z" fill="#407BFF"/>
<path opacity="0.2" d="M226.815 223.575L251.222 222.334L252.168 226.231L226.987 227.512L226.815 223.575Z" fill="black"/>
<path d="M217.829 189.206C218.46 187.944 226.548 185.966 227.513 186.817C228.479 187.668 228.402 190.446 228.402 190.446C228.402 190.446 222.666 195.019 220.343 194.055C218.02 193.092 217.829 189.206 217.829 189.206Z" fill="#407BFF"/>
<path opacity="0.4" d="M217.829 189.206C218.46 187.944 226.548 185.966 227.513 186.817C228.479 187.668 228.402 190.446 228.402 190.446C228.402 190.446 222.666 195.019 220.343 194.055C218.02 193.092 217.829 189.206 217.829 189.206Z" fill="black"/>
<path d="M228.383 189.893C228.201 192.487 226.117 195.214 221.519 195.594C218.651 195.84 218.011 194.568 218.125 193.738C219.578 192.651 218.823 192.579 219.081 191.4C219.416 189.534 218.489 187.637 217.341 185.904V185.843L220.209 180.162L222.121 176.235C222.791 180.583 224.76 188.303 228.383 189.893Z" fill="#EEC1BB"/>
<path opacity="0.2" d="M222.293 180.183C222.652 182.195 222.543 184.271 221.976 186.227C221.409 188.183 220.402 189.96 219.043 191.4C219.378 189.534 218.45 187.637 217.303 185.904C217.303 185.904 217.303 185.843 217.303 185.832L220.171 180.152C220.515 180.798 222.121 179.434 222.293 180.183Z" fill="black"/>
<path d="M217.829 189.206C218.088 189.867 218.533 190.425 219.102 190.801C219.671 191.178 220.336 191.355 221.003 191.308C223.393 191.185 227.513 186.817 227.513 186.817L230.792 189.708C230.792 189.708 225.515 196.998 221.576 196.885C217.638 196.773 216.385 192.292 216.385 192.292L217.829 189.206Z" fill="#407BFF"/>
<path opacity="0.2" d="M217.829 189.206C218.088 189.867 218.533 190.425 219.102 190.801C219.671 191.178 220.336 191.355 221.003 191.308C223.393 191.185 227.513 186.817 227.513 186.817L230.792 189.708C230.792 189.708 225.515 196.998 221.576 196.885C217.638 196.773 216.385 192.292 216.385 192.292L217.829 189.206Z" fill="black"/>
<path d="M232.322 227.338L231.433 223.626C230.647 222.962 230.136 221.994 230.008 220.93C229.645 219.433 229.052 216.921 225.888 211.937C220.573 203.519 221.012 197.583 221.108 196.844L220.534 191.359L221.49 191.246L222.064 196.865V196.926C222.064 196.988 221.347 202.914 226.691 211.373C229.932 216.5 230.563 219.115 230.936 220.684C230.978 221.126 231.107 221.554 231.314 221.94C231.522 222.325 231.804 222.659 232.14 222.919L232.284 223.021L233.24 227.123L232.322 227.338Z" fill="#263238"/>
<path opacity="0.2" d="M236.519 214.634C233.966 217.177 228.163 218.633 224.311 219.351C222.379 214.857 219.67 210.796 216.328 207.385C220.487 206.811 226.509 206.011 226.509 206.011C228.746 200.782 231.423 195.881 234.263 194.425C236.901 193.081 240.907 196.732 241.241 200.002C241.576 203.273 240.505 210.676 236.519 214.634Z" fill="black"/>
<path d="M211.051 166.259C210.821 165.753 210.691 165.202 210.669 164.64C210.646 164.078 210.732 163.517 210.92 162.991C211.108 162.466 211.395 161.988 211.763 161.587C212.131 161.186 212.572 160.871 213.058 160.66C216.691 158.712 226.442 161.173 228.794 165.131C231.146 169.089 233.756 169.899 233.756 169.899C233.592 170.403 233.272 170.832 232.85 171.116C232.427 171.399 231.928 171.52 231.433 171.457C232.006 171.625 232.514 171.984 232.885 172.481C233.256 172.979 233.47 173.589 233.498 174.225C232.741 174.48 232.02 174.846 231.356 175.312C230.897 175.805 231.356 178.388 230.142 178.163C228.928 177.937 229.186 177.753 228.441 179.188C227.695 180.624 224.683 183.536 223.517 182.356C222.351 181.177 209.856 170.391 209.856 170.391C209.856 170.391 209.024 165.961 211.051 166.259Z" fill="#263238"/>
<path d="M224.463 174.225C223.727 179.352 223.46 182.664 221.309 185.227C221.014 185.578 220.694 185.904 220.353 186.201C215.812 190.303 209.311 186.95 208.498 180.972C208.362 179.885 208.311 178.787 208.345 177.691C208.489 172.626 210.324 166.638 214.846 165.182C215.786 164.87 216.775 164.76 217.755 164.858C218.735 164.956 219.687 165.26 220.558 165.753C221.428 166.247 222.199 166.919 222.826 167.733C223.454 168.546 223.926 169.484 224.215 170.493C224.565 171.7 224.65 172.977 224.463 174.225Z" fill="#EEC1BB"/>
<path d="M216.042 175.025C216.042 175.507 215.726 175.866 215.439 175.835C215.152 175.804 214.942 175.394 214.98 174.912C215.018 174.431 215.296 174.082 215.583 174.113C215.87 174.143 216.08 174.543 216.042 175.025Z" fill="#263238"/>
<path d="M211.013 174.523C211.013 174.994 210.698 175.364 210.411 175.333C210.124 175.302 209.923 174.882 209.961 174.41C209.999 173.938 210.277 173.569 210.564 173.6C210.851 173.631 211.051 174.072 211.013 174.523Z" fill="#263238"/>
<path d="M212.59 174.912C211.932 176.318 211.096 177.619 210.104 178.778C210.391 179.041 210.727 179.235 211.09 179.347C211.453 179.458 211.834 179.485 212.208 179.424L212.59 174.912Z" fill="#D4827D"/>
<path d="M218.001 172.985C217.958 173.007 217.911 173.019 217.862 173.019C217.814 173.019 217.767 173.007 217.724 172.985C217.463 172.773 217.159 172.63 216.837 172.568C216.514 172.505 216.183 172.525 215.869 172.626C215.804 172.653 215.732 172.653 215.668 172.624C215.604 172.595 215.553 172.541 215.525 172.472C215.5 172.404 215.501 172.328 215.528 172.261C215.555 172.194 215.605 172.141 215.668 172.113C216.065 171.976 216.486 171.943 216.897 172.016C217.307 172.089 217.696 172.267 218.03 172.534C218.058 172.554 218.083 172.581 218.102 172.612C218.121 172.642 218.134 172.677 218.14 172.713C218.146 172.75 218.145 172.787 218.138 172.823C218.131 172.859 218.117 172.893 218.097 172.923C218.069 172.951 218.037 172.972 218.001 172.985Z" fill="#263238"/>
<path d="M213.374 181.957C214.016 181.885 214.632 181.65 215.172 181.272C215.713 180.894 216.161 180.384 216.481 179.783C216.495 179.746 216.496 179.704 216.484 179.667C216.471 179.629 216.447 179.597 216.414 179.578C216.398 179.569 216.381 179.563 216.364 179.562C216.346 179.56 216.328 179.562 216.311 179.568C216.294 179.574 216.279 179.583 216.265 179.595C216.252 179.607 216.24 179.622 216.232 179.639C215.937 180.198 215.524 180.675 215.026 181.031C214.528 181.387 213.959 181.613 213.364 181.69C213.346 181.69 213.328 181.694 213.312 181.702C213.296 181.71 213.281 181.721 213.269 181.736C213.257 181.751 213.248 181.768 213.243 181.786C213.238 181.805 213.237 181.825 213.24 181.844C213.241 181.863 213.246 181.881 213.254 181.898C213.262 181.915 213.273 181.93 213.286 181.942C213.299 181.955 213.315 181.964 213.332 181.97C213.348 181.976 213.366 181.978 213.384 181.977L213.374 181.957Z" fill="#263238"/>
<path d="M209.091 171.17C209.049 171.137 209.019 171.09 209.005 171.037C209 171.001 209.001 170.964 209.009 170.929C209.018 170.894 209.033 170.861 209.053 170.832C209.074 170.803 209.1 170.779 209.129 170.762C209.159 170.744 209.191 170.733 209.225 170.729C209.638 170.669 210.058 170.716 210.45 170.866C210.843 171.016 211.196 171.264 211.481 171.59C211.529 171.642 211.556 171.712 211.556 171.785C211.556 171.858 211.529 171.928 211.481 171.98C211.433 172.031 211.367 172.06 211.299 172.06C211.231 172.06 211.166 172.031 211.118 171.98C210.887 171.728 210.603 171.539 210.291 171.426C209.979 171.314 209.646 171.282 209.32 171.334C209.272 171.33 209.226 171.312 209.186 171.283C209.146 171.255 209.113 171.216 209.091 171.17Z" fill="#263238"/>
<path d="M211.634 167.13C212.092 167.058 212.559 167.101 212.999 167.256C213.439 167.41 213.839 167.673 214.167 168.022C215.876 167.904 217.591 167.949 219.292 168.155C219.853 168.321 220.36 168.651 220.756 169.11C221.151 169.568 221.419 170.136 221.529 170.75C221.662 171.201 220.84 172.052 220.84 172.052C220.84 172.052 220.907 177.455 220.936 178.952L222.905 183.054C225.276 179.251 226.601 174.809 226.729 170.237C226.968 162.547 212.829 162.557 212.829 162.557L211.634 167.13Z" fill="#263238"/>
<path d="M226.356 180.921C225.941 181.504 225.423 181.993 224.83 182.359C224.238 182.725 223.584 182.961 222.905 183.054C221.089 183.3 220.458 181.485 221.184 179.793C221.844 178.306 223.584 176.327 225.295 176.881C225.668 177.003 226.007 177.223 226.28 177.521C226.552 177.82 226.751 178.187 226.856 178.59C226.962 178.992 226.972 179.416 226.884 179.824C226.797 180.231 226.615 180.609 226.356 180.921Z" fill="#EEC1BB"/>
<path d="M212.934 212.85L203.556 213.998C203.556 213.998 198.097 210.358 196.864 210.287C195.631 210.215 195.736 216.295 197.179 217.464C198.623 218.633 202.16 218.838 202.667 218.807C203.173 218.776 204.005 217.659 204.005 217.659L213.565 216.5L212.934 212.85Z" fill="#EEC1BB"/>
<path d="M231.892 214.716C229.416 215.67 211.51 219.422 210.544 217.946L210.286 217.556L210.009 217.074C209.101 215.475 208.192 213.117 209.798 211.691C211.71 209.969 226.337 208.113 227.312 206.79C228.287 205.468 234.167 189.062 239.635 191.41C239.743 191.459 239.846 191.521 239.941 191.595C240.353 191.861 240.665 192.275 240.821 192.764C242.714 197.89 234.1 213.886 231.892 214.716Z" fill="#407BFF"/>
<path d="M240.821 192.764C240.552 194.448 240.149 196.105 239.616 197.716C237.809 203.427 233.957 212.071 231.012 213.537C227.245 215.393 212.361 217.259 210.248 217.515H210.018L209.971 217.013L209.913 216.51C210.085 216.51 226.787 214.46 230.62 212.583C232.915 211.455 236.633 203.806 238.679 197.357C239.363 195.509 239.776 193.558 239.903 191.574C240.333 191.838 240.659 192.261 240.821 192.764Z" fill="white"/>
<path d="M206.644 212.665L209.502 212.122L210.946 217.966L207.6 218.387L206.644 212.665Z" fill="#407BFF"/>
<path opacity="0.2" d="M206.644 212.665L209.502 212.122L210.946 217.966L207.6 218.387L206.644 212.665Z" fill="black"/>
<path d="M290.083 314.922L294.835 306.75L292.779 305.325L287.713 313.723L290.083 314.922Z" fill="#407BFF"/>
<path opacity="0.2" d="M290.083 314.922L294.835 306.75L292.779 305.325L287.713 313.723L290.083 314.922Z" fill="black"/>
<path d="M224.903 302.998L231.567 296.548L229.961 294.569L222.934 301.142L224.903 302.998Z" fill="#407BFF"/>
<path opacity="0.2" d="M224.903 302.998L231.567 296.548L229.961 294.569L222.934 301.142L224.903 302.998Z" fill="black"/>
<path opacity="0.2" d="M237.981 255.812C237.695 255.904 226.041 259.913 217.58 263.553C218.412 253.699 231.92 247.64 231.92 247.64L237.981 255.812Z" fill="black"/>
<path d="M121.827 118.58C119.562 130.341 104.055 148.592 80.2318 131.151C74.4193 126.896 72.0389 121.861 71.7903 116.694C71.016 101.17 89.266 84.3956 90.3845 83.3805H90.4419C90.4419 83.3805 89.6771 76.0391 84.3904 75.1778C83.9179 75.1173 83.4549 74.9897 83.0138 74.7984C80.1458 73.445 84.3904 69.9076 84.3904 69.9076C87.7938 67.0674 91.1971 72.676 93.4628 72.1018C95.7285 71.5276 98.3862 67.4775 99.8967 69.0975C101.407 70.7176 99.5143 75.1778 102.918 75.1778C106.321 75.1778 110.394 73.5578 111.522 75.1778C112.65 76.7978 111.522 82.3552 111.522 82.3552C111.522 82.3552 103.252 80.4993 101.006 83.2985C101.006 83.2985 120.537 103.18 121.885 115.515C122.019 116.533 121.999 117.568 121.827 118.58Z" fill="#407BFF"/>
<path d="M103.119 115.31L103.597 119.083L100.442 118.949L100.05 115.217C96.3692 114.858 92.7842 113.669 90.8148 112.141L92.3157 109.137C94.5686 110.577 97.0872 111.473 99.6961 111.762L99.0842 105.856C95.1837 104.954 91.0538 103.805 90.92 100.145C90.8244 97.6019 93.0901 95.5718 97.9944 95.4077L97.7267 92.8239L100.26 92.9264L100.585 95.459C102.888 95.627 105.149 96.2021 107.277 97.161L106.388 99.5911C104.636 98.8012 102.788 98.28 100.901 98.0428L101.56 103.231C105.442 104.113 109.782 105.282 110.556 109.24C111.168 112.357 108.921 115.043 103.119 115.31ZM98.7401 102.534L98.2621 97.9916C95.9868 98.1761 95.0881 99.0169 95.1646 100.135C95.2411 101.252 96.742 102.052 98.7401 102.534ZM106.053 109.291C105.824 107.855 104.141 107.127 102 106.553L102.679 111.803C105.289 111.618 106.254 110.624 106.053 109.332V109.291Z" fill="white"/>
<path opacity="0.2" d="M111.57 82.3859C111.57 82.3859 103.3 80.5301 101.054 83.3292C98.023 82.6833 92.3539 81.5144 90.4611 83.3292C90.4611 83.3292 89.6963 75.9878 84.4096 75.1265C83.9371 75.066 83.4741 74.9384 83.033 74.7471C83.452 74.0243 84.0606 73.4501 84.7824 73.0963C88.6064 71.2712 90.8339 77.9667 93.482 76.9516C96.1302 75.9365 98.023 72.6965 99.7247 74.9009C101.426 77.1054 108.874 74.5831 111.57 82.3859Z" fill="black"/>
<path opacity="0.2" d="M121.827 118.58C119.562 130.341 104.055 148.592 80.2319 131.151C74.4194 126.896 72.039 121.861 71.7904 116.694C73.2148 118.334 74.907 119.144 78.5302 119.083C84.7633 118.98 97.7171 112.1 103.252 116.355C108.788 120.611 118.252 120.067 121.913 115.545C122.035 116.556 122.006 117.58 121.827 118.58Z" fill="black"/>
<path d="M89.7059 84.0162C89.7059 84.0162 87.2298 82.4782 91.9524 81.053C96.6751 79.6278 104.38 82.3859 102.679 85.0723C100.732 83.8551 98.5526 83.1277 96.3055 82.9448C94.0584 82.7618 91.8018 83.1282 89.7059 84.0162Z" fill="#263238"/>
<path d="M97.2869 82.027C97.2869 82.027 98.2429 89.9324 100.748 88.7122C103.252 87.4921 99.0172 83.3805 99.0172 83.3805C99.0172 83.3805 104.906 87.2768 105.47 84.5596C106.034 81.8425 98.4723 80.448 97.2869 82.027ZM100.317 87.3998C99.8011 87.7997 98.9503 84.2623 98.9503 84.2623C99.0937 84.3545 100.843 86.9384 100.317 87.3485V87.3998ZM104.036 84.1495C103.673 84.7647 100.748 82.7345 100.748 82.7345C100.748 82.7345 104.4 83.4933 104.036 84.0777V84.1495Z" fill="#263238"/>
<path d="M99.696 83.0524C99.696 83.0524 104.964 86.5385 107.755 86.7334C107.821 86.884 107.856 87.0486 107.856 87.2153C107.856 87.3819 107.821 87.5465 107.755 87.6972C107.755 87.6972 101.445 85.6465 100.107 83.9649C100.107 83.9649 103.157 89.2249 105.537 87.6972C105.799 87.8978 105.996 88.1809 106.101 88.5072C106.101 88.5072 105.231 89.266 103.377 88.5072C101.522 87.7485 99.0459 83.3805 99.0459 83.3805L99.696 83.0524Z" fill="#263238"/>
<path d="M8.36926 370.393L18.2065 275.96L26.409 262.487L32.4413 233.613C32.4413 233.613 41.0453 205.037 40.9593 202.566C40.8733 200.095 46.3511 172.493 46.3511 172.493L52.0871 142.368L59.9741 122.887L84.2948 121.113L96.3213 129.008L132.382 131.643L150.364 153.688L156.234 174.759L170.841 186.284L176.759 205.263L193.298 212.768L200.898 218.448L192.294 267.172L235.783 312.236L296.756 327.011L334.193 349.364L346.975 370.393H8.36926Z" fill="#407BFF"/>
<path opacity="0.6" d="M346.965 370.393H8.36926L18.2065 275.96L26.409 262.487L32.4413 233.613C32.4413 233.613 41.0453 205.037 40.9593 202.566C40.8733 200.095 46.3511 172.493 46.3511 172.493L50.6914 149.515L52.0393 142.337L59.9263 122.856L84.247 121.082L96.2735 128.977L132.334 131.612L150.364 153.688L156.234 174.759L170.841 186.283L176.759 205.262L193.298 212.768L200.898 218.448L192.294 267.172L235.783 312.236L277.196 322.274L296.756 327.021L310.465 335.224L334.193 349.384L346.965 370.393Z" fill="white"/>
<path opacity="0.2" d="M346.965 370.393H8.36926L18.2065 275.96L15.9312 358.776L26.4472 363.903L39.1716 324.561V352.245L55.2706 358.827L68.5112 342.986L88.0805 319.711L95.6521 272.545L93.1282 260.241L116.321 202.72V280.256L129.437 296.907V320.931L131.454 346.708L146.54 345.16L151.081 305.551L161.52 298.825L173.04 278.02L175.908 332.661L184.579 349.404L221.041 319.157L235.811 312.277L277.225 322.315C265.677 325.289 242.312 331.43 242.13 332.661C241.882 334.281 243.985 342.36 247.226 346.698C250.467 351.035 266.652 360.171 266.652 360.171L288.544 358.817L298.009 345.201L310.494 335.245L334.222 349.404H303.63V358.817L346.965 370.393Z" fill="black"/>
<path opacity="0.2" d="M84.247 121.092L73.4251 151.576L71.4366 192.025L62.3259 235.09L80.4899 186.16L92.048 167.53C92.048 167.53 85.4994 158.886 85.9965 156.784C86.4936 154.683 98.0994 131.356 98.0994 131.356L84.247 121.092Z" fill="black"/>
<path opacity="0.2" d="M41.055 300.096C41.054 300.322 41.0218 300.547 40.9594 300.762C40.8924 300.937 40.9307 300.68 41.055 300.096Z" fill="black"/>
<path opacity="0.2" d="M43.9802 207.405L50.6722 216.346V262.487C50.6722 262.487 42.2307 294.826 41.0357 300.086C41.313 295.615 39.1237 272.463 39.1237 272.463L26.4089 262.487L32.4413 233.613C32.4413 233.613 41.0453 205.037 40.9593 202.566C40.8732 200.095 46.3511 172.493 46.3511 172.493L50.6913 149.515L43.9802 207.405Z" fill="black"/>
<path opacity="0.2" d="M150.364 153.688L140.278 193.02L134.944 198.916C134.944 198.916 128.892 261.779 128.892 259.616C128.892 257.452 140.288 205.068 140.288 205.068L150.364 194.742L156.234 174.759L150.364 153.688Z" fill="black"/>
<path opacity="0.2" d="M176.769 205.262L165.784 241.149V255.566L171.272 242.595C171.272 242.595 180.899 236.443 181.119 235.028C181.338 233.613 193.308 212.727 193.308 212.727L176.769 205.262Z" fill="black"/>
<path d="M304.127 370.393H338.256C338.256 370.393 331.459 359.237 328.562 360.652C324.796 362.498 321.995 352.388 317.826 354.788C316.354 355.628 317.071 358.335 316.144 359.422C314.614 361.216 312.674 360.868 310.819 361.852C307.205 363.79 305.915 366.353 304.127 370.393Z" fill="#263238"/>
<path d="M334.528 367.286C334.528 367.286 332.281 353.342 333.83 351.291C335.379 349.24 335.646 358.899 335.646 358.899C335.646 358.899 340.847 338.761 344.174 338.649C347.501 338.536 340.226 356.131 340.226 356.131C340.226 356.131 354.441 331.205 358.581 333.522C362.72 335.839 343.696 357.935 343.696 357.935C343.696 357.935 354.097 348.338 356.382 351.055C358.667 353.772 344.843 362.047 344.843 362.047C344.843 362.047 350.942 360.581 350.933 362.754C350.923 364.928 340.608 368.517 334.528 367.286Z" fill="#407BFF"/>
<path opacity="0.2" d="M334.528 367.286C334.528 367.286 332.281 353.342 333.83 351.291C335.379 349.24 335.646 358.899 335.646 358.899C335.646 358.899 340.847 338.761 344.174 338.649C347.501 338.536 340.226 356.131 340.226 356.131C340.226 356.131 354.441 331.205 358.581 333.522C362.72 335.839 343.696 357.935 343.696 357.935C343.696 357.935 354.097 348.338 356.382 351.055C358.667 353.772 344.843 362.047 344.843 362.047C344.843 362.047 350.942 360.581 350.933 362.754C350.923 364.928 340.608 368.517 334.528 367.286Z" fill="white"/>
<path d="M332.472 365.287C332.472 365.287 321.794 363.236 320.752 361.35C319.71 359.463 326.756 361.996 326.756 361.996C326.756 361.996 313.697 351.988 314.557 349.199C315.417 346.411 326.029 357.402 326.029 357.402C326.029 357.402 312.081 338.567 314.92 335.798C317.76 333.03 328.304 355.034 328.304 355.034C328.304 355.034 324.318 343.755 326.918 342.566C329.518 341.376 331.583 355.249 331.583 355.249C331.583 355.249 332.253 349.774 333.82 350.389C335.388 351.004 335.092 360.57 332.472 365.287Z" fill="#407BFF"/>
<path opacity="0.2" d="M332.472 365.287C332.472 365.287 321.794 363.236 320.752 361.35C319.71 359.463 326.756 361.996 326.756 361.996C326.756 361.996 313.697 351.988 314.557 349.199C315.417 346.411 326.029 357.402 326.029 357.402C326.029 357.402 312.081 338.567 314.92 335.798C317.76 333.03 328.304 355.034 328.304 355.034C328.304 355.034 324.318 343.755 326.918 342.566C329.518 341.376 331.583 355.249 331.583 355.249C331.583 355.249 332.253 349.774 333.82 350.389C335.388 351.004 335.092 360.57 332.472 365.287Z" fill="white"/>
<path d="M331.669 363.769C331.669 363.769 321.354 352.675 321.536 349.774C321.717 346.872 327.712 355.413 327.712 355.413C327.712 355.413 320.436 333.625 323.381 331.246C326.325 328.867 330.197 349.774 330.197 349.774C330.197 349.774 328.285 317.486 333.371 316.758C338.457 316.03 334.413 349.035 334.413 349.035C334.413 349.035 338.122 333.235 341.813 334.117C345.503 334.998 337.903 351.978 337.903 351.978C337.903 351.978 342.549 346.472 343.839 348.441C345.13 350.409 337.941 360.704 331.669 363.769Z" fill="#407BFF"/>
<path opacity="0.4" d="M331.669 363.769C331.669 363.769 321.354 352.675 321.536 349.774C321.717 346.872 327.712 355.413 327.712 355.413C327.712 355.413 320.436 333.625 323.381 331.246C326.325 328.867 330.197 349.774 330.197 349.774C330.197 349.774 328.285 317.486 333.371 316.758C338.457 316.03 334.413 349.035 334.413 349.035C334.413 349.035 338.122 333.235 341.813 334.117C345.503 334.998 337.903 351.978 337.903 351.978C337.903 351.978 342.549 346.472 343.839 348.441C345.13 350.409 337.941 360.704 331.669 363.769Z" fill="white"/>
<path d="M319.165 370.393H346.344C346.344 370.393 340.923 361.504 338.619 362.631C335.618 364.098 333.39 356.049 330.063 357.956C328.887 358.633 329.461 360.786 328.725 361.647C327.501 363.083 325.952 362.806 324.48 363.595C321.612 365.133 320.589 367.174 319.165 370.393Z" fill="#263238"/>
<path opacity="0.2" d="M319.165 370.393H346.344C346.344 370.393 340.923 361.504 338.619 362.631C335.618 364.098 333.39 356.049 330.063 357.956C328.887 358.633 329.461 360.786 328.725 361.647C327.501 363.083 325.952 362.806 324.48 363.595C321.612 365.133 320.589 367.174 319.165 370.393Z" fill="white"/>
<path d="M43.7603 349.979C43.7603 349.979 33.5598 309.878 25.2713 297.174C16.9828 284.47 30.2712 325.883 30.2712 325.883C30.2712 325.883 18.6653 299.481 15.023 300.322C11.3806 301.162 27.0399 329.656 27.0399 329.656C27.0399 329.656 15.1281 306.843 9.91794 310.565C4.70774 314.287 25.1279 337.746 25.1279 337.746C25.1279 337.746 6.76314 322.982 4.94674 327.083C3.13034 331.184 22.6901 344.309 22.6901 344.309C22.6901 344.309 4.0959 340.258 2.10742 347.303C0.118944 354.347 20.6347 353.28 20.6347 353.28C20.6347 353.28 11.1607 352.829 9.36347 360.171C7.56619 367.512 34.229 364.846 43.7603 349.979Z" fill="#407BFF"/>
<path opacity="0.2" d="M43.7603 349.979C43.7603 349.979 33.5598 309.878 25.2713 297.174C16.9828 284.47 30.2712 325.883 30.2712 325.883C30.2712 325.883 18.6653 299.481 15.023 300.322C11.3806 301.162 27.0399 329.656 27.0399 329.656C27.0399 329.656 15.1281 306.843 9.91794 310.565C4.70774 314.287 25.1279 337.746 25.1279 337.746C25.1279 337.746 6.76314 322.982 4.94674 327.083C3.13034 331.184 22.6901 344.309 22.6901 344.309C22.6901 344.309 4.0959 340.258 2.10742 347.303C0.118944 354.347 20.6347 353.28 20.6347 353.28C20.6347 353.28 11.1607 352.829 9.36347 360.171C7.56619 367.512 34.229 364.846 43.7603 349.979Z" fill="white"/>
<path d="M48.9706 361.575C48.9706 361.575 35.1373 333.02 37.9384 328.016C40.7395 323.012 46.6476 339.182 46.6476 339.182C46.6476 339.182 35.9786 302.598 39.8313 298.568C43.684 294.539 50.7488 330.077 50.7488 330.077C50.7488 330.077 47.0013 288.448 50.7488 286.223C54.4963 283.998 56.3032 323.904 56.3032 323.904C56.3032 323.904 58.8557 281.691 63.5592 282.327C68.2627 282.963 63.5592 319.834 63.5592 319.834C63.5592 319.834 74.0752 291.77 78.7787 292.898C83.4822 294.026 71.2072 321.956 71.2072 321.956C71.2072 321.956 83.6352 305.1 87.2585 309.057C90.8817 313.015 76.121 331.471 76.121 331.471C76.121 331.471 88.7594 322.982 92.048 327.226C95.3367 331.471 78.8074 340.556 78.8074 340.556C78.8074 340.556 92.2679 344.298 91.331 347.897C90.3941 351.496 78.8074 350.973 78.8074 350.973C78.8074 350.973 73.7597 376.566 48.9706 361.575Z" fill="#407BFF"/>
<path opacity="0.2" d="M48.9706 361.575C48.9706 361.575 35.1373 333.02 37.9384 328.016C40.7395 323.012 46.6476 339.182 46.6476 339.182C46.6476 339.182 35.9786 302.598 39.8313 298.568C43.684 294.539 50.7488 330.077 50.7488 330.077C50.7488 330.077 47.0013 288.448 50.7488 286.223C54.4963 283.998 56.3032 323.904 56.3032 323.904C56.3032 323.904 58.8557 281.691 63.5592 282.327C68.2627 282.963 63.5592 319.834 63.5592 319.834C63.5592 319.834 74.0752 291.77 78.7787 292.898C83.4822 294.026 71.2072 321.956 71.2072 321.956C71.2072 321.956 83.6352 305.1 87.2585 309.057C90.8817 313.015 76.121 331.471 76.121 331.471C76.121 331.471 88.7594 322.982 92.048 327.226C95.3367 331.471 78.8074 340.556 78.8074 340.556C78.8074 340.556 92.2679 344.298 91.331 347.897C90.3941 351.496 78.8074 350.973 78.8074 350.973C78.8074 350.973 73.7597 376.566 48.9706 361.575Z" fill="black"/>
<path d="M19.2294 293.329C19.2275 293.777 19.35 294.215 19.5813 294.588C19.8125 294.961 20.142 295.252 20.5278 295.423C20.9137 295.594 21.3383 295.639 21.7477 295.55C22.1571 295.462 22.5326 295.245 22.8266 294.927C23.1205 294.608 23.3195 294.204 23.3981 293.764C23.4768 293.324 23.4316 292.869 23.2683 292.457C23.105 292.044 22.8309 291.694 22.4811 291.449C22.1313 291.205 21.7215 291.077 21.3039 291.083C20.752 291.089 20.2243 291.328 19.8358 291.748C19.4473 292.169 19.2294 292.737 19.2294 293.329Z" fill="#407BFF"/>
<path d="M45.3188 352.634C45.2077 352.632 45.1007 352.589 45.0156 352.513C44.9304 352.436 44.8721 352.331 44.8503 352.214C44.7738 351.763 37.0494 306.638 18.6942 287.279C18.6151 287.182 18.5734 287.056 18.5771 286.927C18.5809 286.798 18.63 286.675 18.7145 286.583C18.7991 286.491 18.9128 286.437 19.0331 286.431C19.1534 286.425 19.2714 286.468 19.3634 286.551C37.9384 306.135 45.7203 351.578 45.7968 352.029C45.8091 352.097 45.8087 352.166 45.7956 352.233C45.7825 352.301 45.7568 352.364 45.7203 352.421C45.6837 352.477 45.6369 352.525 45.5827 352.562C45.5286 352.599 45.468 352.623 45.4048 352.634H45.3188Z" fill="#407BFF"/>
<path d="M16.5718 286.92C16.5718 287.442 16.7159 287.951 16.9858 288.384C17.2558 288.818 17.6395 289.155 18.0885 289.355C18.5374 289.554 19.0314 289.607 19.508 289.505C19.9846 289.403 20.4224 289.152 20.766 288.784C21.1096 288.415 21.3436 287.946 21.4384 287.434C21.5332 286.923 21.4845 286.393 21.2986 285.912C21.1126 285.43 20.7977 285.019 20.3937 284.729C19.9896 284.44 19.5146 284.285 19.0287 284.285C18.3771 284.285 17.7522 284.563 17.2914 285.057C16.8306 285.551 16.5718 286.221 16.5718 286.92Z" fill="#407BFF"/>
<path d="M24.4589 308.145C24.4589 308.591 24.5822 309.027 24.8133 309.398C25.0444 309.769 25.3729 310.058 25.7572 310.229C26.1415 310.4 26.5644 310.444 26.9724 310.357C27.3804 310.27 27.7551 310.055 28.0493 309.74C28.3434 309.424 28.5437 309.023 28.6249 308.585C28.706 308.147 28.6644 307.694 28.5052 307.282C28.346 306.869 28.0764 306.517 27.7306 306.269C27.3847 306.021 26.9781 305.889 26.5621 305.889C26.2855 305.888 26.0115 305.945 25.7557 306.058C25.5 306.171 25.2676 306.337 25.0721 306.547C24.8765 306.757 24.7216 307.006 24.6164 307.28C24.5112 307.554 24.4576 307.848 24.4589 308.145Z" fill="#407BFF"/>
<path d="M33.732 301.613C33.7338 302.057 33.8582 302.49 34.0894 302.858C34.3206 303.226 34.6483 303.512 35.031 303.681C35.4137 303.849 35.8344 303.892 36.2399 303.804C36.6454 303.717 37.0175 303.502 37.3094 303.187C37.6012 302.873 37.7997 302.473 37.8797 302.038C37.9597 301.602 37.9177 301.151 37.7589 300.742C37.6002 300.332 37.3318 299.982 36.9878 299.735C36.6437 299.489 36.2393 299.358 35.8256 299.358C35.5499 299.358 35.2768 299.416 35.0222 299.53C34.7675 299.643 34.5363 299.809 34.3418 300.019C34.1472 300.229 33.9932 300.477 33.8886 300.751C33.7839 301.025 33.7307 301.318 33.732 301.613Z" fill="#407BFF"/>
<path d="M29.3534 318.542C30.5097 318.542 31.447 317.536 31.447 316.296C31.447 315.056 30.5097 314.051 29.3534 314.051C28.1971 314.051 27.2598 315.056 27.2598 316.296C27.2598 317.536 28.1971 318.542 29.3534 318.542Z" fill="#407BFF"/>
<path d="M36.839 313.077C36.839 313.523 36.9626 313.96 37.1941 314.331C37.4257 314.702 37.7547 314.991 38.1396 315.162C38.5244 315.332 38.9478 315.376 39.3561 315.288C39.7643 315.201 40.139 314.985 40.4328 314.668C40.7265 314.352 40.9261 313.949 41.0062 313.511C41.0862 313.072 41.0432 312.618 40.8826 312.206C40.7219 311.794 40.4508 311.443 40.1037 311.196C39.7566 310.95 39.349 310.819 38.9327 310.821C38.6569 310.821 38.3839 310.879 38.1292 310.993C37.8746 311.106 37.6434 311.273 37.4488 311.482C37.2543 311.692 37.1003 311.941 36.9956 312.214C36.891 312.488 36.8378 312.781 36.839 313.077Z" fill="#407BFF"/>
<path d="M26.3996 289.555C26.4014 289.999 26.5258 290.432 26.757 290.8C26.9882 291.168 27.3159 291.454 27.6986 291.623C28.0813 291.791 28.502 291.834 28.9075 291.746C29.313 291.659 29.6851 291.444 29.977 291.129C30.2688 290.815 30.4673 290.415 30.5473 289.98C30.6273 289.544 30.5853 289.093 30.4265 288.684C30.2678 288.274 29.9995 287.924 29.6554 287.677C29.3113 287.431 28.9069 287.3 28.4932 287.3C28.2174 287.3 27.9444 287.358 27.6898 287.472C27.4351 287.585 27.2039 287.751 27.0094 287.961C26.8148 288.171 26.6608 288.419 26.5562 288.693C26.4515 288.967 26.3983 289.26 26.3996 289.555Z" fill="#407BFF"/>
<path d="M28.952 301.091L18.914 298.373C18.8534 298.358 18.7963 298.329 18.7461 298.29C18.6959 298.25 18.6535 298.201 18.6214 298.143C18.5894 298.086 18.5683 298.022 18.5595 297.956C18.5506 297.89 18.5541 297.823 18.5698 297.758C18.6015 297.628 18.6788 297.516 18.7857 297.445C18.8925 297.374 19.0206 297.351 19.1434 297.379L28.0151 299.737V289.484C28.0151 289.348 28.0654 289.217 28.1551 289.121C28.2447 289.025 28.3663 288.971 28.4931 288.971C28.6199 288.971 28.7414 289.025 28.8311 289.121C28.9207 289.217 28.9711 289.348 28.9711 289.484L28.952 301.091Z" fill="#407BFF"/>
<path d="M33.4644 310.77L26.4569 309.088C26.3301 309.06 26.2191 308.978 26.1483 308.862C26.0775 308.746 26.0527 308.604 26.0793 308.468C26.1059 308.332 26.1818 308.213 26.2903 308.137C26.3987 308.061 26.5309 308.034 26.6577 308.063L32.8334 309.55L35.4146 301.429C35.4287 301.358 35.4566 301.291 35.4965 301.233C35.5363 301.174 35.5873 301.126 35.6461 301.09C35.7048 301.054 35.7699 301.032 35.8372 301.025C35.9044 301.018 35.9723 301.027 36.0362 301.05C36.1001 301.074 36.1587 301.111 36.2081 301.161C36.2576 301.21 36.2966 301.27 36.3228 301.337C36.349 301.404 36.3617 301.476 36.36 301.548C36.3584 301.62 36.3424 301.692 36.3133 301.757L33.4644 310.77Z" fill="#407BFF"/>
<path d="M37.0397 320.193L29.1719 316.768C29.1081 316.747 29.0491 316.712 28.9987 316.666C28.9483 316.619 28.9075 316.561 28.879 316.497C28.8505 316.432 28.8349 316.362 28.8333 316.29C28.8316 316.219 28.8439 316.148 28.8693 316.082C28.8948 316.016 28.9328 315.956 28.981 315.907C29.0292 315.857 29.0865 315.819 29.1492 315.795C29.2119 315.771 29.2786 315.761 29.3451 315.766C29.4115 315.771 29.4763 315.791 29.5351 315.825L36.4757 318.901L38.4833 312.954C38.5265 312.826 38.6151 312.722 38.7299 312.664C38.8446 312.606 38.976 312.6 39.0951 312.646C39.1549 312.668 39.21 312.702 39.257 312.747C39.3041 312.793 39.3421 312.847 39.3689 312.909C39.3957 312.97 39.4106 313.036 39.4129 313.104C39.4151 313.172 39.4046 313.239 39.3819 313.302L37.0397 320.193Z" fill="#407BFF"/>
<path d="M70.4042 364.497C70.3052 364.497 70.2087 364.465 70.1269 364.405C70.0261 364.324 69.9588 364.203 69.9391 364.069C69.9195 363.935 69.9491 363.798 70.0218 363.687C79.9259 349.025 92.1723 333.02 107.946 325.473C108.004 325.446 108.066 325.431 108.129 325.43C108.192 325.429 108.255 325.441 108.313 325.466C108.372 325.49 108.426 325.527 108.471 325.574C108.516 325.621 108.552 325.678 108.577 325.74C108.626 325.864 108.629 326.003 108.585 326.13C108.54 326.256 108.452 326.358 108.338 326.416C92.7745 333.85 80.6142 349.733 70.7961 364.282C70.7522 364.35 70.6935 364.405 70.6252 364.442C70.5568 364.48 70.4809 364.499 70.4042 364.497Z" fill="#407BFF"/>
<path d="M110.441 326.868C110.271 327.355 109.97 327.778 109.575 328.082C109.181 328.387 108.712 328.559 108.226 328.577C107.741 328.595 107.261 328.458 106.848 328.184C106.435 327.91 106.107 327.511 105.905 327.037C105.704 326.563 105.638 326.036 105.715 325.521C105.793 325.007 106.011 324.529 106.342 324.148C106.673 323.766 107.102 323.499 107.575 323.379C108.047 323.259 108.543 323.292 108.998 323.474C109.608 323.72 110.102 324.215 110.372 324.851C110.643 325.487 110.668 326.212 110.441 326.868Z" fill="#407BFF"/>
<path d="M96.1205 343.786C95.9735 344.2 95.7153 344.559 95.3784 344.816C95.0416 345.074 94.6412 345.218 94.2278 345.232C93.8144 345.245 93.4066 345.127 93.0557 344.892C92.7048 344.658 92.4265 344.317 92.2561 343.913C92.0857 343.508 92.0307 343.059 92.098 342.622C92.1654 342.184 92.352 341.778 92.6345 341.454C92.917 341.13 93.2826 340.903 93.6853 340.801C94.0879 340.7 94.5095 340.729 94.8969 340.884C95.1553 340.988 95.3922 341.145 95.5937 341.347C95.7953 341.549 95.9576 341.792 96.0713 342.062C96.185 342.332 96.2479 342.623 96.2564 342.919C96.2648 343.214 96.2187 343.509 96.1205 343.786Z" fill="#407BFF"/>
<path d="M89.5433 334.168C89.348 334.727 88.9538 335.18 88.4473 335.427C87.9408 335.674 87.3636 335.695 86.8425 335.486C86.3215 335.276 85.8994 334.853 85.669 334.31C85.4386 333.767 85.4189 333.148 85.6141 332.589C85.8093 332.03 86.2035 331.577 86.71 331.33C87.2165 331.083 87.7938 331.062 88.3148 331.271C88.8358 331.481 89.258 331.904 89.4884 332.447C89.7187 332.99 89.7385 333.609 89.5433 334.168Z" fill="#407BFF"/>
<path d="M90.8339 350.368C90.7381 350.645 90.5924 350.899 90.405 351.116C90.2176 351.332 89.9922 351.507 89.7418 351.63C89.4914 351.752 89.2208 351.821 88.9456 351.832C88.6704 351.842 88.3959 351.794 88.138 351.691C87.88 351.587 87.6436 351.43 87.4422 351.228C87.2408 351.027 87.0785 350.785 86.9644 350.516C86.734 349.972 86.7143 349.353 86.9095 348.794C87.1047 348.236 87.499 347.783 88.0054 347.536C88.5119 347.289 89.0892 347.267 89.6102 347.477C90.13 347.686 90.5509 348.109 90.7803 348.651C91.0098 349.193 91.0291 349.811 90.8339 350.368Z" fill="#407BFF"/>
<path d="M82.9182 343.745C82.7733 344.16 82.5168 344.521 82.1811 344.78C81.8453 345.04 81.4454 345.187 81.0318 345.203C80.6182 345.218 80.2095 345.103 79.8573 344.869C79.5051 344.636 79.2253 344.296 79.0531 343.893C78.881 343.489 78.8242 343.04 78.89 342.601C78.9559 342.163 79.1413 341.756 79.4229 341.431C79.7046 341.105 80.0697 340.877 80.4723 340.774C80.875 340.671 81.2969 340.699 81.685 340.853C81.9432 340.956 82.18 341.112 82.3817 341.313C82.5835 341.514 82.7464 341.756 82.8609 342.024C82.9755 342.293 83.0395 342.583 83.0494 342.878C83.0592 343.174 83.0146 343.468 82.9182 343.745Z" fill="#407BFF"/>
<path d="M100.384 325.647C100.238 326.062 99.9806 326.421 99.6444 326.679C99.3082 326.937 98.9084 327.082 98.4952 327.097C98.0821 327.111 97.6742 326.994 97.323 326.761C96.9717 326.527 96.6928 326.187 96.5214 325.784C96.3499 325.38 96.2936 324.932 96.3596 324.494C96.4256 324.056 96.6109 323.649 96.8921 323.325C97.1733 323 97.5379 322.771 97.9399 322.668C98.342 322.565 98.7634 322.592 99.1512 322.746C99.4105 322.848 99.6483 323.005 99.8509 323.207C100.053 323.408 100.217 323.651 100.331 323.921C100.446 324.191 100.51 324.482 100.519 324.779C100.528 325.075 100.482 325.37 100.384 325.647Z" fill="#407BFF"/>
<path d="M104.543 336.762H104.476L94.1893 335.48L97.9655 324.673C97.982 324.603 98.0121 324.538 98.0538 324.481C98.0955 324.425 98.1479 324.378 98.2075 324.345C98.2672 324.311 98.3327 324.292 98.3999 324.287C98.4671 324.283 98.5343 324.294 98.5973 324.319C98.6603 324.345 98.7176 324.384 98.7654 324.435C98.8132 324.486 98.8505 324.547 98.8748 324.614C98.899 324.681 98.9098 324.753 98.9063 324.825C98.9029 324.897 98.8852 324.968 98.8546 325.032L95.5182 334.619L104.591 335.747C104.653 335.751 104.715 335.768 104.771 335.798C104.828 335.827 104.878 335.868 104.92 335.919C104.962 335.969 104.994 336.028 105.015 336.092C105.035 336.156 105.044 336.223 105.04 336.29C105.036 336.358 105.02 336.424 104.993 336.484C104.965 336.545 104.927 336.599 104.88 336.644C104.833 336.689 104.778 336.723 104.718 336.745C104.659 336.767 104.596 336.776 104.533 336.772L104.543 336.762Z" fill="#407BFF"/>
<path d="M94.0078 343.919H93.96L86.8378 342.894L87.1054 333.389C87.1172 333.255 87.1745 333.131 87.2662 333.041C87.3579 332.95 87.4777 332.898 87.6026 332.897C87.6654 332.899 87.727 332.915 87.7841 332.943C87.8412 332.972 87.8925 333.012 87.9351 333.061C87.9777 333.111 88.0108 333.169 88.0325 333.232C88.0542 333.295 88.064 333.362 88.0614 333.43L87.8224 342.002L94.0843 342.935C94.1469 342.942 94.2074 342.963 94.2623 342.996C94.3172 343.03 94.3653 343.074 94.4037 343.128C94.442 343.182 94.4699 343.243 94.4857 343.308C94.5014 343.374 94.5047 343.442 94.4953 343.509C94.471 343.627 94.409 343.733 94.3201 343.808C94.2312 343.882 94.1208 343.922 94.0078 343.919Z" fill="#407BFF"/>
<path d="M80.4039 350.348L80.4708 342.955C80.4757 342.822 80.5279 342.695 80.6168 342.602C80.7056 342.509 80.8244 342.455 80.9488 342.453C81.0112 342.453 81.0729 342.466 81.1303 342.492C81.1878 342.518 81.2399 342.556 81.2835 342.603C81.3271 342.651 81.3614 342.708 81.3844 342.77C81.4074 342.832 81.4186 342.899 81.4173 342.965L81.3599 349.292L88.855 349.066C88.9803 349.069 89.1002 349.122 89.1906 349.215C89.2811 349.308 89.3353 349.434 89.3425 349.569C89.3451 349.636 89.3349 349.704 89.3125 349.767C89.2901 349.83 89.256 349.888 89.2123 349.937C89.1685 349.986 89.116 350.025 89.0579 350.051C88.9998 350.078 88.9372 350.092 88.8741 350.091L80.4039 350.348Z" fill="#407BFF"/>
<path d="M110.48 370.383H-1.54443C-1.54443 370.383 26.7819 360.468 27.4989 357.658C28.2159 354.849 28.1776 352.901 31.6383 350.481C35.099 348.061 39.8217 346.534 41.141 343.857C42.4603 341.181 46.5232 336.865 47.9286 335.603C49.3339 334.342 66.1404 343.406 66.3411 343.611C66.5419 343.816 71.2072 353.649 72.8037 355.854C74.4002 358.058 85.3942 355.372 88.0232 357.689C90.6522 360.007 99.4952 366.025 99.4952 366.025C99.4952 366.025 103.797 365.349 110.48 370.383Z" fill="#263238"/>
<path opacity="0.2" d="M110.48 370.383H-1.54443C-1.54443 370.383 26.7819 360.468 27.4989 357.658C28.2159 354.849 28.1776 352.901 31.6383 350.481C35.099 348.061 39.8217 346.534 41.141 343.857C42.4603 341.181 46.5232 336.865 47.9286 335.603C49.3339 334.342 66.1404 343.406 66.3411 343.611C66.5419 343.816 71.2072 353.649 72.8037 355.854C74.4002 358.058 85.3942 355.372 88.0232 357.689C90.6522 360.007 99.4952 366.025 99.4952 366.025C99.4952 366.025 103.797 365.349 110.48 370.383Z" fill="white"/>
<path d="M138.892 349.866C138.892 349.866 142.41 349.661 142.716 339.346C143.022 329.031 136.865 326.273 132.095 327.534C132.095 327.534 132.793 320.193 129.705 320.459C126.617 320.726 126.837 325.586 126.837 325.586C126.837 325.586 125.776 315.168 121.56 315.158C117.344 315.148 121.56 327.462 121.56 327.462C121.56 327.462 115.728 324.458 113.587 327.462C111.445 330.467 116.264 333.994 116.264 333.994C116.264 333.994 108.692 336.639 111.856 345.057C111.856 345.057 106.589 345.939 105.107 349.702C105.107 349.702 105.528 342.104 103.635 342.617C101.742 343.129 102.153 349.794 102.153 349.794C102.153 349.794 98.9981 342.463 96.2544 345.057C93.5107 347.651 97.5163 353.844 97.5163 353.844C97.5163 353.844 92.2488 351.096 91.3979 354.736C90.5471 358.376 94.352 359.73 94.352 359.73C94.352 359.73 88.8645 358.376 88.8645 365.123C88.8645 365.123 78.3485 364.046 75.796 370.106H138.643L138.892 349.866Z" fill="#263238"/>
<path opacity="0.3" d="M138.892 349.866C138.892 349.866 142.41 349.661 142.716 339.346C143.022 329.031 136.865 326.273 132.095 327.534C132.095 327.534 132.793 320.193 129.705 320.459C126.617 320.726 126.837 325.586 126.837 325.586C126.837 325.586 125.776 315.168 121.56 315.158C117.344 315.148 121.56 327.462 121.56 327.462C121.56 327.462 115.728 324.458 113.587 327.462C111.445 330.467 116.264 333.994 116.264 333.994C116.264 333.994 108.692 336.639 111.856 345.057C111.856 345.057 106.589 345.939 105.107 349.702C105.107 349.702 105.528 342.104 103.635 342.617C101.742 343.129 102.153 349.794 102.153 349.794C102.153 349.794 98.9981 342.463 96.2544 345.057C93.5107 347.651 97.5163 353.844 97.5163 353.844C97.5163 353.844 92.2488 351.096 91.3979 354.736C90.5471 358.376 94.352 359.73 94.352 359.73C94.352 359.73 88.8645 358.376 88.8645 365.123C88.8645 365.123 78.3485 364.046 75.796 370.106H138.643L138.892 349.866Z" fill="white"/>
<path d="M120.374 370.178H212.848L211.51 364.631L203.518 361.534L211.51 349.671L206.118 336.598L190.803 337.295L193.709 316.665L190.153 307.581L177.753 305.828L180.688 292.191L175.918 278.913H168.576L146.397 320.367L144.857 315.271L138.988 309.673L132.764 316.665L120.374 370.178Z" fill="#407BFF"/>
<path opacity="0.2" d="M120.374 370.178H212.848L211.51 364.631L203.518 361.534L211.51 349.671L203.183 351.24L188.843 360.611L192.543 345.857L190.803 337.295L186.673 332.107L172.973 346.841L181.013 342.166L182.973 345.621L178.623 362.262L164.274 364.549L154.494 360.027L154.714 343.427L161.884 339.09L168.576 346.841L175.918 310.647L166.606 329.769L161.014 324.54L151.014 328.836L146.397 320.367L144.857 315.271L145.651 341.94L142.974 357.371L138.988 352.655L133.624 351.24L120.374 370.178Z" fill="black"/>
<path d="M116.904 369.942C116.904 369.942 112.258 357.812 113.013 355.3C113.768 352.788 117.267 361.688 117.267 361.688C117.267 361.688 115.355 340.894 118.405 339.51C121.455 338.126 120.604 357.33 120.604 357.33C120.604 357.33 125.47 328.621 130.106 329.144C134.743 329.667 124.447 357.679 124.447 357.679C124.447 357.679 130.919 344.698 134.007 346.339C137.095 347.979 126.942 361.063 126.942 361.063C126.942 361.063 132.133 357.33 132.86 359.361C133.586 361.391 122.965 368.732 116.904 369.942Z" fill="#263238"/>
<path opacity="0.2" d="M116.904 369.942C116.904 369.942 112.258 357.812 113.013 355.3C113.768 352.788 117.267 361.688 117.267 361.688C117.267 361.688 115.355 340.894 118.405 339.51C121.455 338.126 120.604 357.33 120.604 357.33C120.604 357.33 125.47 328.621 130.106 329.144C134.743 329.667 124.447 357.679 124.447 357.679C124.447 357.679 130.919 344.698 134.007 346.339C137.095 347.979 126.942 361.063 126.942 361.063C126.942 361.063 132.133 357.33 132.86 359.361C133.586 361.391 122.965 368.732 116.904 369.942Z" fill="white"/>
<path d="M116.904 369.942C116.904 369.942 105.795 371.08 104.208 369.747C102.621 368.414 110.011 368.025 110.011 368.025C110.011 368.025 94.4666 363.749 94.3328 360.847C94.1989 357.946 107.812 364.057 107.812 364.057C107.812 364.057 88.4056 351.865 90.1359 348.184C91.8663 344.503 109.103 360.919 109.103 360.919C109.103 360.919 101.57 351.896 103.606 349.825C105.642 347.754 112.21 359.842 112.21 359.842C112.21 359.842 110.977 354.48 112.65 354.449C114.323 354.418 117.707 364.528 116.904 369.942Z" fill="#263238"/>
<path opacity="0.2" d="M116.904 369.942C116.904 369.942 105.795 371.08 104.208 369.747C102.621 368.414 110.011 368.025 110.011 368.025C110.011 368.025 94.4666 363.749 94.3328 360.847C94.1989 357.946 107.812 364.057 107.812 364.057C107.812 364.057 88.4056 351.865 90.1359 348.184C91.8663 344.503 109.103 360.919 109.103 360.919C109.103 360.919 101.57 351.896 103.606 349.825C105.642 347.754 112.21 359.842 112.21 359.842C112.21 359.842 110.977 354.48 112.65 354.449C114.323 354.418 117.707 364.528 116.904 369.942Z" fill="white"/>
<path d="M116.904 369.942C116.904 369.942 101.847 361.421 101.034 358.663C100.222 355.905 108.682 361.534 108.682 361.534C108.682 361.534 94.5623 344.032 96.5125 340.679C98.4628 337.326 109.103 355.31 109.103 355.31C109.103 355.31 96.4169 325.955 100.948 323.289C105.48 320.623 112.793 353.024 112.793 353.024C112.793 353.024 110.929 336.844 114.705 336.249C118.481 335.655 117.076 354.408 117.076 354.408C117.076 354.408 119.552 347.477 121.426 348.82C123.3 350.163 121.684 364.662 116.904 369.942Z" fill="#263238"/>
<path opacity="0.4" d="M116.904 369.942C116.904 369.942 101.847 361.421 101.034 358.663C100.222 355.905 108.682 361.534 108.682 361.534C108.682 361.534 94.5623 344.032 96.5125 340.679C98.4628 337.326 109.103 355.31 109.103 355.31C109.103 355.31 96.4169 325.955 100.948 323.289C105.48 320.623 112.793 353.024 112.793 353.024C112.793 353.024 110.929 336.844 114.705 336.249C118.481 335.655 117.076 354.408 117.076 354.408C117.076 354.408 119.552 347.477 121.426 348.82C123.3 350.163 121.684 364.662 116.904 369.942Z" fill="white"/>
</svg>
